<?xml version="1.0" encoding="UTF-8"?>
<svg version="1.1" xmlns="http://www.w3.org/2000/svg" width="76" height="82">
<path d="M0 0 C1 1 1 1 1.09765625 2.84765625 C1.06510417 4.8984375 1.03255208 6.94921875 1 9 C0.01 9.495 0.01 9.495 -1 10 C-0.67 10.99 -0.34 11.98 0 13 C0.66 12.01 1.32 11.02 2 10 C4.475 10.495 4.475 10.495 7 11 C6.67 12.65 6.34 14.3 6 16 C4.68 16 3.36 16 2 16 C1.90912109 16.95712891 1.90912109 16.95712891 1.81640625 17.93359375 C1.73261719 18.75988281 1.64882813 19.58617188 1.5625 20.4375 C1.48128906 21.26121094 1.40007813 22.08492187 1.31640625 22.93359375 C1 25 1 25 0 26 C-1.76859193 26.09946453 -3.54111451 26.13080217 -5.3125 26.1328125 C-6.38757813 26.13410156 -7.46265625 26.13539062 -8.5703125 26.13671875 C-9.70210937 26.13285156 -10.83390625 26.12898438 -12 26.125 C-13.13179687 26.12886719 -14.26359375 26.13273437 -15.4296875 26.13671875 C-16.50476563 26.13542969 -17.57984375 26.13414063 -18.6875 26.1328125 C-19.68136719 26.13168457 -20.67523438 26.13055664 -21.69921875 26.12939453 C-24 26 -24 26 -25 25 C-25.23192865 23.48530552 -25.41215238 21.96245438 -25.5625 20.4375 C-25.64628906 19.61121094 -25.73007812 18.78492187 -25.81640625 17.93359375 C-25.90728516 16.97646484 -25.90728516 16.97646484 -26 16 C-27.65 15.67 -29.3 15.34 -31 15 C-30.67 13.35 -30.34 11.7 -30 10 C-27.5625 10.375 -27.5625 10.375 -25 11 C-24.67 11.66 -24.34 12.32 -24 13 C-23.67 12.01 -23.34 11.02 -23 10 C-23.66 9.67 -24.32 9.34 -25 9 C-25.09765625 2.84765625 -25.09765625 2.84765625 -25 1 C-20.54806026 -3.45193974 -5.84210546 -1.00341506 0 0 Z M-10.625 9.5 C-11.800625 10.7375 -11.800625 10.7375 -13 12 C-15.475 11.01 -15.475 11.01 -18 10 C-17.34 11.32 -16.68 12.64 -16 14 C-12.11404296 14.44572515 -12.11404296 14.44572515 -10.296875 12.46875 C-9.78640625 11.8190625 -9.2759375 11.169375 -8.75 10.5 C-7.96882813 9.52546875 -7.96882813 9.52546875 -7.171875 8.53125 C-6.78515625 8.0259375 -6.3984375 7.520625 -6 7 C-8.36278736 6.77011494 -8.36278736 6.77011494 -10.625 9.5 Z " fill="#548DE8" transform="translate(52,30)"/>
<path d="M0 0 C7.17766214 5.43309148 10.97014446 12.67748958 12.5625 21.5 C12.91288702 29.25856964 9.39137756 37.38366572 4.75 43.5 C-1.01317975 49.48655881 -10.35956254 54.26243116 -18.6640625 54.66015625 C-27.06388128 54.28913952 -34.72332614 49.97963969 -40.4375 43.9375 C-45.99987646 36.83974602 -50.19249709 29.92726058 -49.75 20.6875 C-48.69174725 12.90841398 -45.23242023 8.85839688 -39.625 3.5625 C-40.08212238 5.10452616 -40.54076347 6.64610214 -41 8.1875 C-41.40798828 9.57001953 -41.40798828 9.57001953 -41.82421875 10.98046875 C-42.625 13.5625 -42.625 13.5625 -43.8125 16.5 C-45.52350851 22.94918591 -45.60621862 30.36822205 -42.9375 36.578125 C-38.56799239 43.18440437 -32.06268017 48.44615506 -24.265625 50.046875 C-15.5596897 51.01420114 -8.65046395 50.15093723 -1.625 44.5625 C3.97956305 39.89203079 6.87703797 34.62667493 7.76171875 27.40625 C8.08201314 17.95204311 5.96430412 11.58986993 0.1875 4.1875 C-5.2943118 -1.63040597 -11.2294488 -2.56922743 -19 -2.9375 C-24.96292805 -2.83239551 -29.27062525 -1.24828226 -34.48046875 1.56640625 C-35.18816406 1.89511719 -35.89585938 2.22382813 -36.625 2.5625 C-37.285 2.2325 -37.945 1.9025 -38.625 1.5625 C-26.89103667 -9.56972162 -12.87716979 -8.3588646 0 0 Z " fill="#CDE3F4" transform="translate(58.625,19.4375)"/>
<path d="M0 0 C3.47914941 -0.02887814 6.95826831 -0.04675687 10.4375 -0.0625 C11.92733398 -0.07506836 11.92733398 -0.07506836 13.44726562 -0.08789062 C14.39150391 -0.09111328 15.33574219 -0.09433594 16.30859375 -0.09765625 C17.62041626 -0.10551147 17.62041626 -0.10551147 18.95874023 -0.11352539 C21 0 21 0 22 1 C22.04092937 3.33297433 22.04241723 5.66705225 22 8 C21.01 8.33 20.02 8.66 19 9 C19 10.32 19 11.64 19 13 C17.68 12.67 16.36 12.34 15 12 C15.33 10.02 15.66 8.04 16 6 C13.69 7.98 11.38 9.96 9 12 C7.68 11.34 6.36 10.68 5 10 C4.01 10.495 4.01 10.495 3 11 C2.34 9.02 1.68 7.04 1 5 C0.34 5 -0.32 5 -1 5 C-0.67 3.35 -0.34 1.7 0 0 Z " fill="#3B82F6" transform="translate(30,31)"/>
<path d="M0 0 C0.79664063 0.00257812 1.59328125 0.00515625 2.4140625 0.0078125 C3.20554687 0.00523438 3.99703125 0.00265625 4.8125 0 C7.0390625 0.1328125 7.0390625 0.1328125 10.0390625 1.1328125 C10.0390625 4.1028125 10.0390625 7.0728125 10.0390625 10.1328125 C2.4490625 10.1328125 -5.1409375 10.1328125 -12.9609375 10.1328125 C-12.9609375 7.4928125 -12.9609375 4.8528125 -12.9609375 2.1328125 C-9.54343626 1.35166936 -6.45532139 1.1328125 -2.9609375 1.1328125 C-1.9609375 0.1328125 -1.9609375 0.1328125 0 0 Z " fill="#3B82F4" transform="translate(41.9609375,44.8671875)"/>
<path d="M0 0 C0 3.43524404 -0.87727743 5.75657926 -2 9 C-4.4720792 16.90889396 -5.68873195 25.15939297 -2.3125 33.015625 C1.49508254 38.77232717 7.34970308 43.97822763 14 46 C16.83000371 46.31312366 19.63255873 46.43782099 22.4765625 46.55859375 C25.32879134 47.05751304 26.228335 47.77055579 28 50 C18.76822384 51.77369773 12.60889746 49.54646726 4.875 44.42578125 C-1.8057508 39.34562699 -6.39543697 31.91787161 -9 24 C-9.51253228 17.95895281 -8.9854938 12.90302251 -6.1875 7.5 C-5.465625 6.675 -4.74375 5.85 -4 5 C-3.2575 4.05125 -2.515 3.1025 -1.75 2.125 C-1.1725 1.42375 -0.595 0.7225 0 0 Z " fill="#CEE7F7" transform="translate(18,23)"/>
<path d="M0 0 C2.46022534 1.7069541 4.88352602 3.44880789 7.28125 5.2421875 C5.38671875 5.8515625 5.38671875 5.8515625 3.28125 6.2421875 C2.724375 5.6646875 2.1675 5.0871875 1.59375 4.4921875 C-3.27197844 -0.24203477 -9.50364201 -0.97571513 -16.09375 -1.2578125 C-22.05667805 -1.15270801 -26.36437525 0.43140524 -31.57421875 3.24609375 C-32.28191406 3.57480469 -32.98960938 3.90351563 -33.71875 4.2421875 C-34.37875 3.9121875 -35.03875 3.5821875 -35.71875 3.2421875 C-25.49095693 -6.46110336 -11.824032 -7.64484827 0 0 Z " fill="#C0D8E9" transform="translate(55.71875,17.7578125)"/>
<path d="M0 0 C2.33294775 -0.04241723 4.66702567 -0.04092937 7 0 C8 1 8 1 8.0625 4.5625 C8.041875 5.696875 8.02125 6.83125 8 8 C7.01 8.33 6.02 8.66 5 9 C5 10.32 5 11.64 5 13 C3.68 12.67 2.36 12.34 1 12 C1.33 10.02 1.66 8.04 2 6 C-0.31 7.98 -2.62 9.96 -5 12 C-6.32 11.34 -7.64 10.68 -9 10 C-9.99 10.495 -9.99 10.495 -11 11 C-11 10.01 -11 9.02 -11 8 C-10.01 8 -9.02 8 -8 8 C-8 7.01 -8 6.02 -8 5 C-7.34 5 -6.68 5 -6 5 C-6 5.66 -6 6.32 -6 7 C-5.01 6.34 -4.02 5.68 -3 5 C-0.66666667 4.66666667 1.66666667 4.33333333 4 4 C4.99 3.34 5.98 2.68 7 2 C6.401875 2.226875 5.80375 2.45375 5.1875 2.6875 C4.1046875 2.8421875 4.1046875 2.8421875 3 3 C1.25 1.5625 1.25 1.5625 0 0 Z " fill="#3E82EE" transform="translate(44,31)"/>
<path d="M0 0 C0 3.54608913 -0.88319383 6.2407147 -1.9375 9.625 C-2.29714844 10.79289062 -2.65679688 11.96078125 -3.02734375 13.1640625 C-4 16 -4 16 -5 17 C-5.28101946 19.31952569 -5.44782625 21.63885514 -5.62109375 23.96875 C-5.74613281 24.6390625 -5.87117187 25.309375 -6 26 C-6.66 26.33 -7.32 26.66 -8 27 C-9.73790791 21.78627626 -8.85983715 16.364061 -8 11 C-6.1875 7.5 -6.1875 7.5 -4 5 C-3.2575 4.05125 -2.515 3.1025 -1.75 2.125 C-1.1725 1.42375 -0.595 0.7225 0 0 Z " fill="#D7E9F6" transform="translate(18,23)"/>
<path d="M0 0 C0.66 0 1.32 0 2 0 C2 0.66 2 1.32 2 2 C2.99 1.34 3.98 0.68 5 0 C8.1875 -0.125 8.1875 -0.125 11 0 C9.72530598 2.54938804 8.50840774 2.74579613 6 4 C4.29078411 5.5412312 4.29078411 5.5412312 3 7 C2.38125 6.649375 1.7625 6.29875 1.125 5.9375 C0.073125 5.4734375 0.073125 5.4734375 -1 5 C-1.99 5.495 -1.99 5.495 -3 6 C-3 5.01 -3 4.02 -3 3 C-2.01 3 -1.02 3 0 3 C0 2.01 0 1.02 0 0 Z " fill="#4082DF" transform="translate(36,36)"/>
<path d="M0 0 C1.65 0.33 3.3 0.66 5 1 C6.04976964 4.14930893 6.10131595 6.38814456 6.0625 9.6875 C6.05347656 10.68136719 6.04445313 11.67523438 6.03515625 12.69921875 C6.02355469 13.45847656 6.01195312 14.21773437 6 15 C5.67 15 5.34 15 5 15 C4.67 12.03 4.34 9.06 4 6 C2.35 5.67 0.7 5.34 -1 5 C-0.67 3.35 -0.34 1.7 0 0 Z " fill="#6DA2E1" transform="translate(22,40)"/>
<path d="M0 0 C0.33 0 0.66 0 1 0 C1.09796875 0.94101562 1.1959375 1.88203125 1.296875 2.8515625 C2.37451351 12.15874345 2.37451351 12.15874345 7 20 C7.75 22.375 7.75 22.375 8 24 C4.23788321 20.55139295 0.49035306 17.00974102 -1 12 C-1.03053927 7.93827722 -0.60616001 4.01251572 0 0 Z " fill="#C4DAEB" transform="translate(12,40)"/>
<path d="M0 0 C0.66 0.99 1.32 1.98 2 3 C0.30397484 4.04115423 -1.40748937 5.05718378 -3.125 6.0625 C-4.55199219 6.91521484 -4.55199219 6.91521484 -6.0078125 7.78515625 C-9.50995638 9.20704495 -11.39239868 8.93669174 -15 8 C-15 7.67 -15 7.34 -15 7 C-14.00419922 6.74476562 -14.00419922 6.74476562 -12.98828125 6.484375 C-7.83004654 5.06868431 -3.94122403 3.8098499 0 0 Z " fill="#C5DBED" transform="translate(58,63)"/>
<path d="M0 0 C1.67542976 0.28604898 3.34385343 0.61781233 5 1 C4.67 2.65 4.34 4.3 4 6 C2.68 6 1.36 6 0 6 C-0.38218767 4.34385343 -0.71395102 2.67542976 -1 1 C-0.67 0.67 -0.34 0.34 0 0 Z " fill="#72AAE7" transform="translate(54,40)"/>
<path d="M0 0 C-3.36423277 2.96052484 -6.69159287 3.92289822 -11 5 C-6.05136986 -1.43321918 -6.05136986 -1.43321918 0 0 Z " fill="#D6EDF7" transform="translate(31,17)"/>
<path d="M0 0 C0.99 0 1.98 0 3 0 C3 2.97 3 5.94 3 9 C2.01 8.67 1.02 8.34 0 8 C0 5.36 0 2.72 0 0 Z " fill="#588AD9" transform="translate(27,31)"/>
<path d="M0 0 C4.8 2.46153846 4.8 2.46153846 5.8125 5.1875 C5.874375 5.785625 5.93625 6.38375 6 7 C1.2 4.53846154 1.2 4.53846154 0.1875 1.8125 C0.125625 1.214375 0.06375 0.61625 0 0 Z " fill="#D9EAF6" transform="translate(20,62)"/>
<path d="M0 0 C1.32 0 2.64 0 4 0 C3.67 1.65 3.34 3.3 3 5 C1.68 4.34 0.36 3.68 -1 3 C-0.67 2.01 -0.34 1.02 0 0 Z " fill="#7C98C7" transform="translate(38,21)"/>
<path d="" fill="#D5E9F3" transform="translate(0,0)"/>
</svg>
